<svg width="60" height="10" viewBox="0 0 60 10" fill="none" xmlns="http://www.w3.org/2000/svg">
<path d="M10.1341 3.67958C10.117 3.62675 10.0854 3.57978 10.043 3.54399C10.0006 3.50819 9.94895 3.48501 9.89401 3.47707L6.74809 3.01994L5.34084 0.166545C5.31623 0.116834 5.27822 0.0749896 5.2311 0.0457341C5.18398 0.0164787 5.12962 0.000976563 5.07416 0.000976562C5.01869 0.000976562 4.96433 0.0164787 4.91721 0.0457341C4.87009 0.0749896 4.83208 0.116834 4.80748 0.166545L3.40022 3.01779L0.254303 3.47492C0.199463 3.48298 0.147963 3.50619 0.10561 3.54195C0.0632555 3.57771 0.0317307 3.62459 0.0145882 3.67731C-0.00255433 3.73002 -0.00463305 3.78648 0.00858632 3.84031C0.0218057 3.89415 0.0497976 3.94322 0.0894072 3.982L2.36572 6.20101L1.8286 9.3348C1.81961 9.38922 1.82591 9.44506 1.84681 9.49609C1.8677 9.54713 1.90237 9.59136 1.94693 9.62384C1.9915 9.65632 2.04422 9.67578 2.0992 9.68004C2.15418 9.6843 2.20926 9.6732 2.2583 9.64797L5.07442 8.17024L7.8884 9.64958C7.93748 9.67485 7.99263 9.68597 8.04767 9.68169C8.10271 9.67742 8.15547 9.65791 8.20006 9.62536C8.24465 9.59281 8.27931 9.54849 8.30015 9.49737C8.321 9.44624 8.32721 9.39033 8.3181 9.33588L7.78098 6.20208L10.0578 3.98307C10.0975 3.94459 10.1257 3.8958 10.1392 3.84218C10.1526 3.78856 10.1509 3.73225 10.1341 3.67958Z" fill="#FFB801"/>
<path d="M22.597 3.67909C22.5799 3.62627 22.5483 3.57929 22.5059 3.5435C22.4635 3.50771 22.4118 3.48452 22.3569 3.47658L19.211 3.01945L17.8037 0.166057C17.7791 0.116346 17.7411 0.0745013 17.694 0.0452459C17.6469 0.0159904 17.5925 0.000488281 17.537 0.000488281C17.4816 0.000488281 17.4272 0.0159904 17.3801 0.0452459C17.333 0.0745013 17.295 0.116346 17.2704 0.166057L15.8631 3.01731L12.7172 3.47443C12.6624 3.48249 12.6109 3.50571 12.5685 3.54146C12.5261 3.57722 12.4946 3.6241 12.4775 3.67682C12.4603 3.72954 12.4583 3.78599 12.4715 3.83983C12.4847 3.89366 12.5127 3.94273 12.5523 3.98151L14.8286 6.20052L14.2915 9.33432C14.2825 9.38873 14.2888 9.44457 14.3097 9.49561C14.3306 9.54664 14.3653 9.59087 14.4098 9.62335C14.4544 9.65583 14.5071 9.67529 14.5621 9.67955C14.6171 9.68381 14.6722 9.67271 14.7212 9.64748L17.5373 8.16975L20.3513 9.64909C20.4004 9.67436 20.4555 9.68548 20.5106 9.68121C20.5656 9.67693 20.6184 9.65742 20.663 9.62487C20.7075 9.59232 20.7422 9.548 20.763 9.49688C20.7839 9.44576 20.7901 9.38984 20.781 9.33539L20.2439 6.20159L22.5207 3.98258C22.5604 3.9441 22.5886 3.89531 22.6021 3.84169C22.6155 3.78808 22.6138 3.73176 22.597 3.67909Z" fill="#FFB801"/>
<path d="M35.0599 3.6786C35.0428 3.62578 35.0112 3.57881 34.9688 3.54301C34.9263 3.50722 34.8747 3.48403 34.8198 3.47609L31.6739 3.01897L30.2666 0.165568C30.242 0.115857 30.204 0.0740131 30.1569 0.0447576C30.1097 0.0155021 30.0554 0 29.9999 0C29.9445 0 29.8901 0.0155021 29.843 0.0447576C29.7959 0.0740131 29.7579 0.115857 29.7332 0.165568L28.326 3.01682L25.1801 3.47394C25.1252 3.482 25.0737 3.50522 25.0314 3.54098C24.989 3.57674 24.9575 3.62362 24.9404 3.67633C24.9232 3.72905 24.9211 3.7855 24.9344 3.83934C24.9476 3.89317 24.9756 3.94224 25.0152 3.98102L27.2915 6.20003L26.7544 9.33383C26.7454 9.38824 26.7517 9.44408 26.7726 9.49512C26.7935 9.54616 26.8281 9.59038 26.8727 9.62286C26.9173 9.65534 26.97 9.6748 27.025 9.67906C27.08 9.68332 27.135 9.67222 27.1841 9.64699L30.0002 8.16926L32.8142 9.6486C32.8632 9.67388 32.9184 9.68499 32.9734 9.68072C33.0285 9.67644 33.0812 9.65694 33.1258 9.62438C33.1704 9.59183 33.2051 9.54751 33.2259 9.49639C33.2468 9.44527 33.253 9.38935 33.2439 9.3349L32.7067 6.20111L34.9836 3.98209C35.0233 3.94362 35.0515 3.89482 35.0649 3.84121C35.0784 3.78759 35.0766 3.73127 35.0599 3.6786Z" fill="#FFB801"/>
<path d="M47.523 3.6786C47.5059 3.62578 47.4744 3.57881 47.4319 3.54301C47.3895 3.50722 47.3379 3.48403 47.2829 3.47609L44.137 3.01897L42.7298 0.165568C42.7051 0.115857 42.6671 0.0740131 42.62 0.0447576C42.5729 0.0155021 42.5185 0 42.4631 0C42.4076 0 42.3532 0.0155021 42.3061 0.0447576C42.259 0.0740131 42.221 0.115857 42.1964 0.165568L40.7891 3.01682L37.6432 3.47394C37.5884 3.482 37.5369 3.50522 37.4945 3.54098C37.4522 3.57674 37.4206 3.62362 37.4035 3.67633C37.3864 3.72905 37.3843 3.7855 37.3975 3.83934C37.4107 3.89317 37.4387 3.94224 37.4783 3.98102L39.7546 6.20003L39.2175 9.33383C39.2085 9.38824 39.2148 9.44408 39.2357 9.49512C39.2566 9.54616 39.2913 9.59038 39.3358 9.62286C39.3804 9.65534 39.4331 9.6748 39.4881 9.67906C39.5431 9.68332 39.5982 9.67222 39.6472 9.64699L42.4633 8.16926L45.2773 9.6486C45.3264 9.67388 45.3815 9.68499 45.4366 9.68072C45.4916 9.67644 45.5444 9.65694 45.589 9.62438C45.6336 9.59183 45.6682 9.54751 45.6891 9.49639C45.7099 9.44527 45.7161 9.38935 45.707 9.3349L45.1699 6.20111L47.4467 3.98209C47.4864 3.94362 47.5146 3.89482 47.5281 3.84121C47.5416 3.78759 47.5398 3.73127 47.523 3.6786Z" fill="#FFB801"/>
<path d="M59.9857 3.6786C59.9686 3.62578 59.9371 3.57881 59.8946 3.54301C59.8522 3.50722 59.8006 3.48403 59.7456 3.47609L56.5997 3.01897L55.1924 0.165568C55.1678 0.115857 55.1298 0.0740131 55.0827 0.0447576C55.0356 0.0155021 54.9812 0 54.9257 0C54.8703 0 54.8159 0.0155021 54.7688 0.0447576C54.7217 0.0740131 54.6837 0.115857 54.6591 0.165568L53.2518 3.01682L50.1059 3.47394C50.051 3.482 49.9995 3.50522 49.9572 3.54098C49.9148 3.57674 49.8833 3.62362 49.8662 3.67633C49.849 3.72905 49.8469 3.7855 49.8601 3.83934C49.8734 3.89317 49.9014 3.94224 49.941 3.98102L52.2173 6.20003L51.6802 9.33383C51.6712 9.38824 51.6775 9.44408 51.6984 9.49512C51.7193 9.54616 51.7539 9.59038 51.7985 9.62286C51.8431 9.65534 51.8958 9.6748 51.9508 9.67906C52.0057 9.68332 52.0608 9.67222 52.1099 9.64699L54.926 8.16926L57.74 9.6486C57.7891 9.67388 57.8442 9.68499 57.8993 9.68072C57.9543 9.67644 58.0071 9.65694 58.0517 9.62438C58.0962 9.59183 58.1309 9.54751 58.1517 9.49639C58.1726 9.44527 58.1788 9.38935 58.1697 9.3349L57.6326 6.20111L59.9094 3.98209C59.9491 3.94362 59.9773 3.89482 59.9908 3.84121C60.0042 3.78759 60.0025 3.73127 59.9857 3.6786Z" fill="#FFB801"/>
</svg>
